<svg width="16" height="16" viewBox="0 0 16 16" fill="none" xmlns="http://www.w3.org/2000/svg"><path fill-rule="evenodd" clip-rule="evenodd" d="M11.83 7.44c-.01-1.77 1.45-2.62 1.52-2.67a3.28 3.28 0 0 0-2.57-1.38c-1.1-.11-2.13.64-2.69.64-.55 0-1.4-.63-2.31-.61-1.2.02-2.3.69-2.9 1.75-1.25 2.15-.33 5.32.88 7.06.59.85 1.3 1.8 2.22 1.77.89-.03 1.22-.57 2.3-.57 1.07 0 1.37.57 2.32.55.95-.01 1.56-.86 2.14-1.72.68-.98.96-1.94.98-1.99-.02 0-1.87-.71-1.89-2.83Zm-1.77-5.2c.5-.6.83-1.42.74-2.24-.71.03-1.57.47-2.07 1.06a2.93 2.93 0 0 0-.75 2.17c.79.06 1.6-.4 2.08-1Z" fill="#346297"></path></svg>